<?xml version="1.0" encoding="UTF-8" standalone="no"?>
<!DOCTYPE svg PUBLIC "-//W3C//DTD SVG 1.1//EN" "http://www.w3.org/Graphics/SVG/1.1/DTD/svg11.dtd">
<svg xmlns="http://www.w3.org/2000/svg" version="1.1" viewBox="0.00 0.00 231.00 140.00">
<g stroke-width="2.00" fill="none" stroke-linecap="butt">
<path stroke="#6c885c" vector-effect="non-scaling-stroke" d="
  M 126.23 48.40
  L 125.51 55.72
  Q 125.45 56.35 126.09 56.32
  L 134.92 55.80"
/>
<path stroke="#80579a" vector-effect="non-scaling-stroke" d="
  M 108.22 48.09
  Q 107.85 48.32 107.86 48.50
  Q 108.05 51.36 108.83 53.55"
/>
<path stroke="#628bbc" vector-effect="non-scaling-stroke" d="
  M 109.33 54.14
  Q 108.55 55.26 109.16 56.78
  Q 109.35 57.28 109.89 57.20
  L 116.60 56.10"
/>
<path stroke="#6c885c" vector-effect="non-scaling-stroke" d="
  M 120.69 55.26
  Q 120.57 56.16 121.00 56.14
  Q 121.93 56.10 121.93 54.76"
/>
<path stroke="#628bbc" vector-effect="non-scaling-stroke" d="
  M 97.84 57.55
  L 105.24 57.36
  Q 105.86 57.35 105.79 56.74
  L 105.44 53.44"
/>
<path stroke="#80579a" vector-effect="non-scaling-stroke" d="
  M 105.44 53.44
  L 104.66 48.08
  Q 104.59 47.58 104.09 47.59
  L 100.23 47.66"
/>
<path stroke="#c9aacc" vector-effect="non-scaling-stroke" d="
  M 105.44 53.44
  Q 102.21 53.41 99.40 54.80"
/>
<path stroke="#6c885c" vector-effect="non-scaling-stroke" d="
  M 134.19 58.68
  L 125.83 59.02
  Q 125.33 59.04 125.23 59.53
  Q 124.43 63.44 125.07 67.10"
/>
<path stroke="#628bbc" vector-effect="non-scaling-stroke" d="
  M 117.88 59.54
  L 110.10 59.82
  Q 109.46 59.84 109.55 60.47
  L 110.82 69.21
  Q 110.89 69.70 111.38 69.74
  Q 113.56 69.94 115.96 68.91"
/>
<path stroke="#628bbc" vector-effect="non-scaling-stroke" d="
  M 103.19 69.73
  Q 105.11 70.24 106.98 69.96
  Q 107.81 69.83 107.69 69.00
  L 106.45 60.49
  A 0.66 0.65 83.8 0 0 105.76 59.93
  L 98.54 60.36"
/>
</g>
<path fill="#f03224" d="
  M 111.43 0.00
  L 119.39 0.00
  L 118.95 5.29
  A 0.93 0.93 0.0 0 1 118.11 6.13
  L 112.78 6.58
  A 0.62 0.62 0.0 0 1 112.11 6.03
  L 111.43 0.00
  Z"
/>
<path fill="#faa633" d="
  M 131.24 28.69
  L 99.41 25.53
  A 0.40 0.40 0.0 0 1 99.05 25.11
  L 99.94 8.55
  A 0.40 0.40 0.0 0 1 100.32 8.17
  L 134.88 6.65
  A 0.40 0.40 0.0 0 1 135.30 7.12
  L 131.67 28.36
  A 0.40 0.40 0.0 0 1 131.24 28.69
  Z"
/>
<path fill="#73c5a1" d="
  M 91.13 26.69
  L 113.81 28.22
  A 0.67 0.67 0.0 0 1 114.44 28.93
  L 113.68 40.54
  A 0.67 0.67 0.0 0 1 113.03 41.17
  L 94.22 41.82
  A 0.67 0.67 0.0 0 1 93.55 41.30
  L 90.43 27.51
  A 0.67 0.67 0.0 0 1 91.13 26.69
  Z"
/>
<path fill="#7f75b5" d="
  M 138.03 41.18
  L 116.57 41.57
  A 0.43 0.43 0.0 0 1 116.13 41.13
  L 116.45 31.36
  A 0.43 0.43 0.0 0 1 116.86 30.94
  L 139.73 29.86
  A 0.43 0.43 0.0 0 1 140.17 30.36
  L 138.45 40.82
  A 0.43 0.43 0.0 0 1 138.03 41.18
  Z"
/>
<path fill="#18388a" d="
  M 101.06 74.50
  L 103.91 81.96
  A 0.35 0.35 0.0 0 0 104.25 82.18
  L 136.34 80.87
  A 0.35 0.35 0.0 0 1 136.70 81.22
  L 136.72 85.71
  A 0.35 0.35 0.0 0 1 136.37 86.06
  L 99.56 86.04
  A 0.35 0.35 0.0 0 1 99.24 85.81
  L 82.17 39.55
  A 0.35 0.35 0.0 0 0 81.89 39.33
  L 71.34 38.09
  A 0.35 0.35 0.0 0 1 71.05 37.64
  L 72.04 34.46
  A 0.35 0.35 0.0 0 1 72.38 34.22
  L 85.35 34.20
  A 0.35 0.35 0.0 0 1 85.68 34.43
  L 89.12 43.64
  A 0.35 0.35 0.0 0 0 89.46 43.86
  L 145.69 42.67
  A 0.35 0.35 0.0 0 1 146.03 43.12
  L 137.19 73.11
  A 0.35 0.35 0.0 0 1 136.86 73.36
  L 101.38 74.02
  A 0.35 0.35 0.0 0 0 101.06 74.50
  Z
  M 126.23 48.40
  L 125.51 55.72
  Q 125.45 56.35 126.09 56.32
  L 134.92 55.80
  Q 136.08 56.10 136.89 55.72
  A 1.04 1.03 85.7 0 0 137.46 55.05
  L 140.02 46.16
  A 0.37 0.37 0.0 0 0 139.65 45.69
  L 126.73 46.25
  A 0.78 0.78 0.0 0 0 126.01 46.84
  Q 125.85 47.55 126.23 48.40
  Z
  M 108.22 48.09
  Q 107.85 48.32 107.86 48.50
  Q 108.05 51.36 108.83 53.55
  Q 109.11 53.06 109.33 54.14
  Q 108.55 55.26 109.16 56.78
  Q 109.35 57.28 109.89 57.20
  L 116.60 56.10
  Q 120.57 57.62 120.69 55.26
  Q 120.57 56.16 121.00 56.14
  Q 121.93 56.10 121.93 54.76
  L 122.96 47.08
  A 0.61 0.61 0.0 0 0 122.30 46.39
  Q 115.43 47.08 108.54 47.20
  A 0.49 0.47 -62.9 0 0 108.25 47.30
  Q 107.51 47.87 108.22 48.09
  Z
  M 97.84 57.55
  L 105.24 57.36
  Q 105.86 57.35 105.79 56.74
  L 105.44 53.44
  L 104.66 48.08
  Q 104.59 47.58 104.09 47.59
  L 100.23 47.66
  L 92.00 47.84
  Q 91.34 47.85 91.58 48.46
  L 94.96 57.33
  Q 95.17 57.86 95.73 57.95
  Q 96.64 58.08 97.84 57.55
  Z
  M 125.07 67.10
  Q 124.37 67.61 124.36 68.32
  A 0.59 0.58 88.7 0 0 124.98 68.92
  L 133.27 68.44
  Q 133.72 68.41 133.85 67.98
  L 136.30 59.22
  Q 136.46 58.64 135.88 58.50
  Q 135.09 58.31 134.19 58.68
  L 125.83 59.02
  Q 125.33 59.04 125.23 59.53
  Q 124.43 63.44 125.07 67.10
  Z
  M 115.96 68.91
  L 120.63 69.09
  Q 121.19 69.11 121.19 68.56
  L 121.21 60.46
  Q 121.21 59.83 120.61 59.65
  Q 119.55 59.33 117.88 59.54
  L 110.10 59.82
  Q 109.46 59.84 109.55 60.47
  L 110.82 69.21
  Q 110.89 69.70 111.38 69.74
  Q 113.56 69.94 115.96 68.91
  Z
  M 98.54 60.36
  Q 96.15 60.21 96.43 60.96
  Q 97.97 65.25 99.55 69.46
  A 0.79 0.77 -7.4 0 0 100.23 69.97
  Q 101.90 70.11 103.19 69.73
  Q 105.11 70.24 106.98 69.96
  Q 107.81 69.83 107.69 69.00
  L 106.45 60.49
  A 0.66 0.65 83.8 0 0 105.76 59.93
  L 98.54 60.36
  Z"
/>
<path fill="#e775aa" d="
  M 105.44 53.44
  Q 102.21 53.41 99.40 54.80
  Q 97.69 52.70 97.59 49.27
  Q 97.57 48.79 98.06 48.77
  Q 99.57 48.73 100.23 47.66
  L 104.09 47.59
  Q 104.59 47.58 104.66 48.08
  L 105.44 53.44
  Z"
/>
<path fill="#e775aa" d="
  M 108.83 53.55
  Q 108.05 51.36 107.86 48.50
  Q 107.85 48.32 108.22 48.09
  L 118.50 47.74
  Q 118.80 47.73 118.79 48.04
  L 118.70 51.50
  A 0.48 0.47 86.4 0 1 118.30 51.96
  L 108.83 53.55
  Z"
/>
<path fill="#bfd72d" d="
  M 126.23 48.40
  L 135.66 48.32
  Q 136.22 48.31 136.13 48.86
  L 134.92 55.80
  L 126.09 56.32
  Q 125.45 56.35 125.51 55.72
  L 126.23 48.40
  Z"
/>
<path fill="#bfd72d" d="
  M 121.93 54.76
  Q 121.93 56.10 121.00 56.14
  Q 120.57 56.16 120.69 55.26
  L 120.62 49.26
  Q 120.62 48.91 120.96 48.92
  L 121.28 48.92
  Q 121.70 48.93 121.71 49.35
  L 121.93 54.76
  Z"
/>
<path fill="#abdeee" d="
  M 105.44 53.44
  L 105.79 56.74
  Q 105.86 57.35 105.24 57.36
  L 97.84 57.55
  Q 97.00 55.59 99.40 54.80
  Q 102.21 53.41 105.44 53.44
  Z"
/>
<path fill="#abdeee" d="
  M 116.60 56.10
  L 109.89 57.20
  Q 109.35 57.28 109.16 56.78
  Q 108.55 55.26 109.33 54.14
  L 116.03 54.25
  Q 116.49 54.26 116.89 54.04
  L 117.14 53.90
  Q 117.76 53.57 117.88 54.26
  Q 118.11 55.66 116.60 56.10
  Z"
/>
<path fill="#bfd72d" d="
  M 134.19 58.68
  L 132.70 66.12
  A 1.83 1.83 0.0 0 1 130.76 67.58
  L 125.07 67.10
  Q 124.43 63.44 125.23 59.53
  Q 125.33 59.04 125.83 59.02
  L 134.19 58.68
  Z"
/>
<path fill="#abdeee" d="
  M 117.88 59.54
  Q 118.54 66.10 115.96 68.91
  Q 113.56 69.94 111.38 69.74
  Q 110.89 69.70 110.82 69.21
  L 109.55 60.47
  Q 109.46 59.84 110.10 59.82
  L 117.88 59.54
  Z"
/>
<path fill="#abdeee" d="
  M 103.19 69.73
  Q 99.26 67.12 98.54 60.36
  L 105.76 59.93
  A 0.66 0.65 83.8 0 1 106.45 60.49
  L 107.69 69.00
  Q 107.81 69.83 106.98 69.96
  Q 105.11 70.24 103.19 69.73
  Z"
/>
<circle fill="#18388a" cx="103.60" cy="91.66" r="4.04"/>
<circle fill="#18388a" cx="132.01" cy="91.66" r="4.05"/>
<path fill="#18388a" d="
  M 127.37 111.60
  Q 123.11 113.44 119.36 116.17
  A 0.38 0.38 0.0 0 0 119.69 116.85
  Q 120.42 116.64 121.31 116.88
  Q 122.18 117.11 121.33 117.38
  L 115.24 119.37
  A 0.46 0.45 -13.2 0 1 114.65 119.01
  C 113.41 111.50 124.79 107.43 130.29 105.96
  A 1.21 1.18 52.8 0 1 131.22 106.10
  Q 132.56 106.95 132.98 108.53
  Q 133.13 109.08 132.84 109.57
  C 129.96 114.33 124.83 121.52 123.79 125.98
  Q 123.44 127.46 123.99 128.40
  A 0.82 0.82 0.0 0 0 125.32 128.51
  Q 129.79 123.31 133.26 117.52
  C 134.70 115.12 134.98 112.03 137.71 109.49
  A 0.88 0.87 -23.3 0 1 139.18 110.07
  C 139.50 114.78 128.64 128.37 125.35 132.04
  A 1.89 1.89 0.0 0 1 122.78 132.26
  C 116.97 127.72 123.97 117.73 127.77 112.09
  Q 128.41 111.15 127.37 111.60
  Z"
/>
<path fill="#18388a" d="
  M 66.51 111.57
  Q 60.40 111.32 55.31 114.54
  A 1.07 1.07 0.0 0 0 55.49 116.44
  C 58.68 117.69 70.07 119.94 68.32 125.26
  C 67.47 127.85 65.91 129.42 63.25 130.42
  C 59.51 131.82 49.82 133.80 46.59 130.67
  Q 46.20 130.29 46.30 129.75
  Q 47.02 125.98 50.87 125.60
  A 0.10 0.10 0.0 0 1 50.95 125.77
  L 50.63 126.08
  Q 50.59 126.12 50.59 126.17
  Q 50.57 126.49 50.81 126.70
  Q 50.95 126.83 51.23 126.85
  Q 58.09 127.40 64.56 124.59
  A 1.07 1.07 0.0 0 0 64.91 122.87
  C 62.09 119.93 51.85 121.02 51.46 116.25
  C 50.73 107.50 62.53 106.14 68.74 106.52
  Q 70.40 106.62 71.57 107.15
  Q 71.99 107.34 72.08 107.79
  C 72.83 111.78 68.29 112.84 65.62 114.27
  Q 65.32 114.43 65.02 114.27
  Q 64.83 114.18 64.87 114.00
  Q 64.94 113.71 65.00 113.66
  Q 65.88 112.89 66.69 112.04
  Q 67.11 111.60 66.51 111.57
  Z"
/>
<path fill="#18388a" d="
  M 95.73 140.00
  L 94.87 140.00
  Q 93.95 135.88 96.09 132.81
  Q 99.09 128.51 101.13 124.09
  Q 102.04 122.13 100.60 123.74
  C 98.99 125.54 95.69 129.13 92.94 129.27
  Q 92.44 129.30 92.06 129.63
  C 88.89 132.46 85.79 132.87 84.03 128.00
  A 0.24 0.24 0.0 0 0 83.62 127.93
  C 82.48 129.28 78.97 132.59 76.98 131.64
  C 74.60 130.49 77.07 126.05 78.23 124.58
  Q 78.36 124.42 78.21 124.28
  L 78.20 124.27
  Q 78.04 124.13 77.89 124.28
  Q 74.93 127.25 72.15 130.40
  Q 71.67 130.95 71.37 131.06
  A 0.89 0.89 0.0 0 1 70.18 130.39
  C 69.40 126.41 70.08 123.77 72.29 120.22
  Q 76.67 113.17 82.96 107.13
  A 1.15 1.11 -67.6 0 1 83.69 106.81
  Q 86.43 106.66 85.06 108.78
  Q 80.19 116.30 72.77 124.75
  Q 72.32 125.27 72.60 125.88
  Q 72.79 126.29 73.11 125.98
  C 75.62 123.53 78.05 120.75 81.15 119.10
  Q 81.58 118.87 82.03 119.07
  C 83.55 119.77 83.62 120.98 82.55 122.20
  Q 80.61 124.43 79.95 125.97
  Q 78.50 129.37 81.68 127.49
  C 82.96 126.73 83.93 125.97 84.56 124.44
  Q 86.61 119.54 92.02 117.80
  A 2.33 2.32 -20.7 0 1 94.85 119.08
  Q 96.32 122.45 94.61 125.71
  Q 93.39 128.05 95.56 126.54
  C 99.57 123.76 102.88 119.12 105.78 115.01
  Q 106.61 113.83 108.04 113.89
  L 108.76 113.91
  A 0.70 0.69 18.4 0 1 109.31 115.00
  L 104.61 121.85
  A 0.27 0.27 0.0 0 0 104.98 122.22
  L 110.00 118.89
  A 1.28 1.27 67.2 0 1 111.95 119.69
  Q 112.30 121.32 111.35 123.09
  Q 109.70 126.13 109.54 126.29
  Q 104.67 130.88 110.64 127.85
  Q 111.93 127.20 114.34 124.47
  A 0.27 0.27 0.0 0 1 114.74 124.47
  L 114.98 124.74
  A 0.64 0.64 0.0 0 1 114.99 125.59
  C 112.49 128.51 107.54 133.45 103.55 131.93
  Q 101.82 131.27 100.31 131.57
  Q 99.80 131.68 99.64 132.17
  Q 98.29 136.51 95.73 140.00
  Z
  M 92.02 121.47
  Q 88.14 123.10 86.69 127.00
  A 1.41 1.40 -77.8 0 0 87.90 128.89
  Q 89.30 129.00 90.27 127.93
  Q 90.63 127.53 90.67 126.98
  Q 90.83 124.15 92.18 121.65
  A 0.13 0.13 0.0 0 0 92.02 121.47
  Z
  M 107.33 122.05
  L 102.19 127.59
  A 0.10 0.10 0.0 0 0 102.19 127.73
  L 102.22 127.76
  A 2.36 1.94 -47.1 0 0 105.25 127.35
  L 107.32 125.12
  A 2.36 1.94 -47.1 0 0 107.50 122.08
  L 107.47 122.05
  A 0.10 0.10 0.0 0 0 107.33 122.05
  Z"
/>
<path fill="#18388a" d="
  M 170.71 127.99
  C 167.10 131.04 161.80 134.80 158.83 128.36
  Q 158.63 127.94 158.27 128.24
  L 154.21 131.59
  A 1.81 1.81 0.0 0 1 152.11 131.73
  C 148.87 129.76 151.65 125.05 153.58 123.29
  A 0.36 0.36 0.0 0 0 153.26 122.67
  L 151.10 123.13
  Q 150.60 123.24 150.24 123.62
  Q 147.70 126.27 145.05 128.80
  C 142.22 131.48 135.86 134.08 134.89 128.02
  C 134.07 122.93 141.12 115.65 146.31 117.69
  A 1.60 1.60 0.0 0 1 147.05 120.07
  Q 144.17 124.39 139.03 125.59
  A 1.09 1.09 0.0 0 0 138.40 127.29
  L 138.84 127.89
  Q 139.89 129.33 141.53 128.63
  Q 144.56 127.33 147.20 124.95
  Q 148.49 123.78 147.82 122.72
  Q 147.53 122.26 147.74 121.75
  Q 148.91 118.82 151.75 117.43
  A 0.39 0.39 0.0 0 1 152.31 117.79
  Q 152.30 118.16 152.41 118.49
  Q 152.53 118.90 152.96 118.88
  L 156.47 118.70
  A 1.77 1.77 0.0 0 1 157.80 121.74
  C 156.55 122.97 154.08 125.42 154.09 127.29
  A 1.07 1.07 0.0 0 0 155.82 128.13
  Q 161.00 124.12 165.22 119.06
  Q 165.57 118.64 165.71 118.11
  Q 166.13 116.49 167.96 116.68
  Q 168.44 116.73 168.52 117.21
  C 169.32 121.84 170.11 125.55 165.38 128.24
  Q 165.03 128.45 165.20 128.82
  L 165.31 129.05
  Q 165.38 129.20 165.54 129.15
  Q 167.85 128.33 169.75 126.84
  Q 170.83 125.99 171.99 123.61
  C 173.49 120.54 178.53 116.04 182.44 117.68
  A 1.74 1.73 -61.2 0 1 183.19 120.27
  Q 180.37 124.34 175.43 125.54
  Q 173.47 126.02 174.81 127.53
  L 175.17 127.93
  Q 176.26 129.16 177.81 128.59
  Q 181.26 127.31 183.78 124.61
  Q 184.05 124.31 184.22 124.68
  L 184.46 125.21
  A 0.22 0.22 0.0 0 1 184.44 125.44
  C 181.91 128.91 172.75 136.30 171.27 128.19
  Q 171.17 127.61 170.71 127.99
  Z
  M 144.5049 119.5639
  A 3.43 0.84 -36.0 0 0 141.2363 120.9004
  A 3.43 0.84 -36.0 0 0 138.9551 123.5961
  A 3.43 0.84 -36.0 0 0 142.2237 122.2596
  A 3.43 0.84 -36.0 0 0 144.5049 119.5639
  Z
  M 180.7640 119.5324
  A 3.45 0.84 -36.2 0 0 177.4839 120.8922
  A 3.45 0.84 -36.2 0 0 175.1960 123.6076
  A 3.45 0.84 -36.2 0 0 178.4761 122.2478
  A 3.45 0.84 -36.2 0 0 180.7640 119.5324
  Z
  M 165.75 125.47
  A 0.34 0.34 0.0 0 0 165.82 125.24
  L 165.54 121.85
  A 0.34 0.34 0.0 0 0 164.96 121.63
  L 161.25 125.24
  A 0.34 0.34 0.0 0 0 161.25 125.73
  L 163.48 127.84
  A 0.34 0.34 0.0 0 0 163.99 127.80
  L 165.75 125.47
  Z"
/>
</svg>
